<svg id="OBJECTS" xmlns="http://www.w3.org/2000/svg" viewBox="0 0 476 337"><defs><style>.cls-1,.cls-2,.cls-3,.cls-6{fill:none;stroke:#d2b47b;stroke-linecap:round;stroke-linejoin:round;}.cls-1,.cls-2,.cls-3{stroke-width:3px;}.cls-2{stroke-dasharray:0.2 12.78;}.cls-3{stroke-dasharray:0.21 13.44;}.cls-4,.cls-5,.cls-7{fill:#d2b47b;}.cls-5{font-size:39.69px;}.cls-5,.cls-7{font-family:LaborUnion-Regular, Labor Union;}.cls-6{stroke-width:2px;}.cls-7{font-size:76.04px;}.cls-8{letter-spacing:-0.02em;}.cls-9{letter-spacing:0.03em;}.cls-10{letter-spacing:-0.05em;}.cls-11{letter-spacing:-0.01em;}.cls-12{letter-spacing:-0.05em;}.cls-13{letter-spacing:0em;}.cls-14{letter-spacing:0.01em;}</style></defs><title>353622-PAWTB2-437</title><line class="cls-1" x1="51" y1="170.81" x2="51.1" y2="170.81"/><line class="cls-2" x1="63.89" y1="170.81" x2="382" y2="170.81"/><line class="cls-1" x1="388.4" y1="170.81" x2="388.5" y2="170.81"/><line class="cls-1" x1="190.04" y1="274.91" x2="190.14" y2="274.91"/><line class="cls-3" x1="203.59" y1="274.91" x2="251.47" y2="274.91"/><line class="cls-1" x1="258.19" y1="274.91" x2="258.29" y2="274.91"/><circle class="cls-4" cx="225.5" cy="11.6" r="2.68"/><path class="cls-4" d="M414.8,87.91a25.89,25.89,0,0,1,15.17,5,27.71,27.71,0,0,1,11.6,22.17c.11,14.88-11.26,25.48-27.63,25.78-14.55.26-24.7-5.88-35.42-12.38-11.78-7.13-12-14-33.82-14.82-33.95-1.25-52.49,13.16-66.9,26.29,13.39-2.6,43.4-4.45,50.61,12.39a1.35,1.35,0,0,1-2.48,1.06c-7.71-18-46.28-11.83-52.49-9.56a1.35,1.35,0,0,1-1.38-2.27c15.37-14.27,34.51-32,72.74-30.62,22.53.84,23.06,7.92,35.12,15.22,10.83,6.56,20.23,12.23,34,12,14.8-.26,25.07-9.74,25-23.05a25,25,0,0,0-10.48-20,22.78,22.78,0,0,0-20.56-3.37,18.48,18.48,0,0,0-12.36,16A15.33,15.33,0,0,0,403.72,123a1.35,1.35,0,0,1-1.27,2.39,18,18,0,0,1-9.68-17.93A21.25,21.25,0,0,1,407,89.16,25,25,0,0,1,414.8,87.91Z"/><circle class="cls-4" cx="406.65" cy="119.74" r="7.44"/><path class="cls-4" d="M316.35,155.73a6.77,6.77,0,1,1,6.76,6.76A6.76,6.76,0,0,1,316.35,155.73Z"/><path class="cls-4" d="M325.87,96a1.07,1.07,0,0,1,.75,1.83c-6,6-6,15.71-4.05,22.86a27.76,27.76,0,0,0,19.59,19,20,20,0,0,0,16.56-3.28,17.39,17.39,0,0,0,7.2-13.21c.34-5.94-2-11.78-6-15.23A13.51,13.51,0,0,0,347.76,105c-7.07,1.56-8.86,6.82-8.25,10.86a8.89,8.89,0,0,0,9.75,7.83,1.07,1.07,0,0,1,.18,2.13,11.07,11.07,0,0,1-12-9.64c-.81-5.34,1.94-11.51,9.9-13.26a15.82,15.82,0,0,1,14,3.32c4.55,3.87,7.14,10.38,6.76,17A19.51,19.51,0,0,1,360,138a22.22,22.22,0,0,1-18.33,3.64,30,30,0,0,1-21.14-20.46c-1.94-7-2.06-16.3,2.84-22.91-10.87,1.33-24.89,7.71-32,13.42-15.58,12.47-21,25.07-21,25.2a1.07,1.07,0,0,1-2-.83c.22-.53,5.63-13.2,21.67-26,8-6.39,24.29-13.58,35.83-14.11Z"/><path class="cls-4" d="M345.45,122.08a4.06,4.06,0,1,1,4.06,4.06A4.05,4.05,0,0,1,345.45,122.08Z"/><path class="cls-4" d="M33.54,87.91a25.89,25.89,0,0,0-15.17,5,27.71,27.71,0,0,0-11.6,22.17C6.66,130,18,140.56,34.4,140.86c14.55.26,24.69-5.88,35.42-12.38,11.77-7.13,12-14,33.82-14.82,34-1.25,52.49,13.16,66.9,26.29-13.4-2.6-43.4-4.45-50.61,12.39a1.35,1.35,0,1,0,2.48,1.06c7.7-18,46.28-11.83,52.49-9.56a1.35,1.35,0,0,0,1.38-2.27c-15.37-14.27-34.51-32-72.74-30.62-22.54.84-23.06,7.92-35.12,15.22-10.83,6.56-20.23,12.23-34,12-14.8-.26-25.07-9.74-25-23.05A25,25,0,0,1,20,95.1a22.78,22.78,0,0,1,20.56-3.37,18.5,18.5,0,0,1,12.36,16A15.35,15.35,0,0,1,44.62,123a1.35,1.35,0,0,0,1.26,2.39,18,18,0,0,0,9.69-17.93A21.25,21.25,0,0,0,41.35,89.16,25,25,0,0,0,33.54,87.91Z"/><circle class="cls-4" cx="41.68" cy="119.74" r="7.44"/><path class="cls-4" d="M132,155.73a6.76,6.76,0,1,0-6.76,6.76A6.76,6.76,0,0,0,132,155.73Z"/><path class="cls-4" d="M122.47,96a1.07,1.07,0,0,0-.75,1.83c6,6,6,15.71,4,22.86a27.76,27.76,0,0,1-19.59,19,20,20,0,0,1-16.56-3.28,17.39,17.39,0,0,1-7.2-13.21c-.34-5.94,2-11.78,6-15.23A13.51,13.51,0,0,1,100.58,105c7.07,1.56,8.86,6.82,8.25,10.86a8.89,8.89,0,0,1-9.75,7.83,1.07,1.07,0,1,0-.18,2.13,11.07,11.07,0,0,0,12-9.64c.81-5.34-1.94-11.51-9.9-13.26a15.82,15.82,0,0,0-14,3.32c-4.55,3.87-7.14,10.38-6.76,17A19.53,19.53,0,0,0,88.35,138a22.24,22.24,0,0,0,18.34,3.64,30,30,0,0,0,21.14-20.46c1.94-7,2.06-16.3-2.84-22.91,10.87,1.33,24.88,7.71,32,13.42,15.58,12.47,21,25.07,21,25.2a1.07,1.07,0,0,0,2-.83c-.23-.53-5.63-13.2-21.67-26-8-6.39-24.29-13.58-35.83-14.11Z"/><path class="cls-4" d="M102.89,122.08a4.06,4.06,0,1,0-4.06,4.06A4.05,4.05,0,0,0,102.89,122.08Z"/><path class="cls-4" d="M171.33,157.44a53.48,53.48,0,0,1,104.48,0h2.61a56,56,0,0,0-109.7,0Z"/><text class="cls-5" transform="translate(209.08 157.13)">V</text><path class="cls-4" d="M260.5,61.92a7.63,7.63,0,0,0-5.87,2.76c-9.87,5.15-22.15,17.89-22.15,49.46a1.28,1.28,0,0,0,2.55,0c0-27.18,9.3-39.7,17.89-45.48a6.84,6.84,0,0,0-.06.91,7.64,7.64,0,1,0,7.64-7.65Z"/><path class="cls-4" d="M190.46,61.92a7.63,7.63,0,0,1,5.87,2.76c9.87,5.15,22.16,17.89,22.15,49.46a1.28,1.28,0,0,1-2.55,0c0-27.18-9.3-39.7-17.89-45.48a6.84,6.84,0,0,1,.06.91,7.64,7.64,0,1,1-7.64-7.65Z"/><polyline class="cls-6" points="226.12 112.87 226.12 112.87 226.12 42.82"/><circle class="cls-4" cx="226.75" cy="28.81" r="4.46"/><path class="cls-6" d="M177.72,137.06c1.28-25.47,14.54-33.16,22.93-36.93,6.41-2.88,17.4-5.94,24.19-7.64,8.77-2.19,16.83-13.67,10.79-21.7-9.51-12.69-24.08-2.11-21.38,9.93,3.38,15,33.52,14.32,44.34,24.51,13,12.22,13.91,24.52,13.38,36.93"/><circle class="cls-6" cx="169.44" cy="94.4" r="3.18"/><circle class="cls-6" cx="277.7" cy="94.4" r="3.18"/><path class="cls-4" d="M88.91,329.78a20.1,20.1,0,0,1-11.75-3.87,21.5,21.5,0,0,1-9-17.19c-.08-11.54,8.73-19.76,21.42-20,11.29-.2,19.15,4.56,27.46,9.59,9.13,5.53,19.48,11.8,36.41,12.43,26.32,1,40.7-10.21,51.86-20.39-10.38,2-33.64,3.45-39.24-9.6a1.06,1.06,0,0,1,.55-1.38,1.05,1.05,0,0,1,1.38.55c6,13.94,35.88,9.17,40.7,7.42a1,1,0,0,1,1.07,1.75C197.85,300.17,183,314,153.37,312.84c-17.47-.65-28.07-7.06-37.41-12.72-8.4-5.09-15.69-9.48-26.34-9.29-11.47.2-19.44,7.55-19.37,17.87a19.44,19.44,0,0,0,8.13,15.51,17.66,17.66,0,0,0,15.94,2.61,14.36,14.36,0,0,0,9.58-12.37,11.87,11.87,0,0,0-6.4-11.86,1.05,1.05,0,0,1,1-1.86,13.94,13.94,0,0,1,7.5,13.9,16.46,16.46,0,0,1-11,14.18A19.49,19.49,0,0,1,88.91,329.78Z"/><path class="cls-4" d="M101,306a5.77,5.77,0,1,1-5.76-5.77A5.76,5.76,0,0,1,101,306Z"/><path class="cls-4" d="M175.42,277.2a5.24,5.24,0,1,1-5.24-5.24A5.23,5.23,0,0,1,175.42,277.2Z"/><path class="cls-4" d="M160.75,328.57a1.05,1.05,0,0,1-.74-1.8c5.91-5.84,5.93-15.43,4-22.45a27.26,27.26,0,0,0-19.25-18.62,19.68,19.68,0,0,0-16.26,3.22,17.14,17.14,0,0,0-7.07,13c-.33,5.84,1.93,11.57,5.91,15a13.29,13.29,0,0,0,11.93,2.8c6.94-1.52,8.7-6.7,8.1-10.66a8.73,8.73,0,0,0-9.58-7.69,1,1,0,1,1-.17-2.09,10.88,10.88,0,0,1,11.83,9.47c.79,5.24-1.91,11.3-9.73,13A15.54,15.54,0,0,1,126,318.45c-4.47-3.8-7-10.19-6.64-16.67a19.16,19.16,0,0,1,7.92-14.55,21.85,21.85,0,0,1,18-3.57A29.46,29.46,0,0,1,166,303.76c1.91,6.85,2,16-2.78,22.5,10.67-1.31,24.44-7.57,31.46-13.19,15.3-12.24,20.6-24.62,20.65-24.74a1,1,0,1,1,1.93.81c-.21.52-5.52,13-21.27,25.57-7.85,6.27-23.86,13.34-35.2,13.86Z"/><path class="cls-4" d="M140.83,302.36a3.15,3.15,0,1,1-3.15-3.15A3.14,3.14,0,0,1,140.83,302.36Z"/><path class="cls-4" d="M359.43,329.78a20.1,20.1,0,0,0,11.75-3.87,21.5,21.5,0,0,0,9-17.19c.08-11.54-8.73-19.76-21.43-20-11.28-.2-19.14,4.56-27.45,9.59-9.13,5.53-19.48,11.8-36.41,12.43-26.32,1-40.7-10.21-51.87-20.39,10.39,2,33.65,3.45,39.24-9.6a1,1,0,1,0-1.92-.83c-6,13.94-35.88,9.17-40.7,7.42a1,1,0,0,0-1.07,1.75c11.92,11.07,26.76,24.85,56.4,23.74,17.47-.65,28.06-7.06,37.41-12.72,8.4-5.09,15.68-9.48,26.34-9.29,11.47.2,19.44,7.55,19.36,17.87A19.4,19.4,0,0,1,370,324.21,17.66,17.66,0,0,1,354,326.82a14.35,14.35,0,0,1-9.58-12.37,11.87,11.87,0,0,1,6.4-11.86,1.05,1.05,0,0,0-1-1.86,13.94,13.94,0,0,0-7.5,13.9,16.46,16.46,0,0,0,11,14.18A19.49,19.49,0,0,0,359.43,329.78Z"/><path class="cls-4" d="M347.34,306a5.77,5.77,0,1,0,5.77-5.77A5.77,5.77,0,0,0,347.34,306Z"/><path class="cls-4" d="M272.91,277.2a5.25,5.25,0,1,0,5.25-5.24A5.24,5.24,0,0,0,272.91,277.2Z"/><path class="cls-4" d="M287.59,328.57a1.05,1.05,0,0,0,.74-1.8c-5.92-5.84-5.94-15.43-4-22.45a27.26,27.26,0,0,1,19.24-18.62,19.67,19.67,0,0,1,16.26,3.22,17.12,17.12,0,0,1,7.08,13c.33,5.84-1.93,11.57-5.91,15a13.3,13.3,0,0,1-11.93,2.8c-6.94-1.52-8.7-6.7-8.1-10.66a8.73,8.73,0,0,1,9.58-7.69,1,1,0,1,0,.17-2.09,10.87,10.87,0,0,0-11.83,9.47c-.79,5.24,1.91,11.3,9.73,13a15.54,15.54,0,0,0,13.74-3.26c4.47-3.8,7-10.19,6.64-16.67a19.19,19.19,0,0,0-7.92-14.55,21.85,21.85,0,0,0-18-3.57,29.44,29.44,0,0,0-20.76,20.1c-1.91,6.85-2,16,2.78,22.5-10.68-1.31-24.44-7.57-31.46-13.19-15.3-12.24-20.6-24.62-20.65-24.74a1.05,1.05,0,1,0-1.94.81c.22.52,5.53,13,21.28,25.57,7.85,6.27,23.86,13.34,35.2,13.86Z"/><path class="cls-4" d="M307.51,302.36a3.15,3.15,0,1,0,3.14-3.15A3.14,3.14,0,0,0,307.51,302.36Z"/><circle class="cls-4" cx="224.84" cy="314.09" r="6.37"/><text class="cls-7" transform="translate(9.04 248.97)"><tspan class="cls-8">D</tspan><tspan class="cls-9" x="53.84" y="0">I</tspan><tspan class="cls-10" x="77.71" y="0">V</tspan><tspan x="126.08" y="0">A </tspan><tspan class="cls-11" x="199.07" y="0">H</tspan><tspan class="cls-12" x="259.52" y="0">O</tspan><tspan class="cls-13" x="314.88" y="0">T</tspan><tspan class="cls-14" x="360.89" y="0">E</tspan><tspan class="cls-13" x="411.15" y="0">L</tspan></text></svg>